<?xml version="1.0" standalone="no"?>
<!DOCTYPE svg PUBLIC "-//W3C//DTD SVG 20010904//EN"
 "http://www.w3.org/TR/2001/REC-SVG-20010904/DTD/svg10.dtd">
<svg version="1.0" xmlns="http://www.w3.org/2000/svg"
 width="513.000000pt" height="513.000000pt" viewBox="0 0 513.000000 513.000000"
 preserveAspectRatio="xMidYMid meet">
<metadata>
Created by potrace 1.14, written by Peter Selinger 2001-2017
</metadata>
<g transform="translate(0.000000,513.000000) scale(0.100000,-0.100000)"
fill="#000000" stroke="none">
<path d="M2325 5109 c-798 -82 -1502 -519 -1927 -1196 -469 -746 -515 -1705
-119 -2493 453 -902 1382 -1454 2381 -1417 831 32 1578 449 2042 1142 209 312
353 697 410 1100 17 118 17 512 0 630 -95 667 -405 1233 -903 1650 -364 304
-791 495 -1279 570 -126 19 -477 28 -605 14z m343 -1040 c280 -30 522 -117
752 -270 115 -76 296 -253 367 -359 144 -215 207 -421 206 -670 -2 -325 -135
-618 -392 -862 -316 -301 -785 -458 -1255 -420 -80 7 -153 9 -163 5 -34 -12
-198 -115 -310 -195 -66 -46 -126 -81 -146 -85 -40 -6 -86 15 -116 53 -20 25
-21 39 -21 244 l0 217 -92 69 c-436 325 -620 824 -482 1303 89 306 319 584
630 763 201 115 409 180 679 212 69 7 252 5 343 -5z m1430 -1726 c106 -230 91
-483 -39 -699 -45 -73 -155 -192 -218 -235 l-50 -34 -1 -127 c0 -140 -9 -172
-51 -194 -49 -25 -73 -16 -203 71 -70 47 -130 85 -134 85 -4 1 -90 2 -192 4
-155 2 -198 6 -265 25 -103 29 -208 73 -275 115 l-52 33 63 7 c35 4 110 16
167 27 100 19 106 19 180 3 78 -17 189 -22 323 -14 75 5 79 4 158 -36 l81 -42
0 53 c0 30 4 65 9 78 5 13 45 49 88 80 220 153 320 374 272 597 -10 49 -9 56
24 128 19 43 41 96 47 119 16 53 26 47 68 -44z"/>
<path d="M2240 3816 c-505 -89 -881 -400 -996 -822 -22 -83 -29 -257 -15 -350
46 -280 222 -531 498 -707 102 -65 107 -76 113 -229 l5 -128 75 46 c41 26 109
63 150 83 72 35 78 36 165 31 50 -2 171 -4 270 -4 200 0 306 17 474 76 500
176 817 620 762 1065 -25 206 -113 389 -261 546 -181 192 -399 313 -679 379
-112 26 -446 34 -561 14z m-345 -897 c54 -15 120 -82 135 -138 32 -120 -62
-241 -189 -241 -61 0 -97 13 -135 48 -65 61 -83 157 -43 232 26 50 56 75 113
95 48 17 68 18 119 4z m682 -16 c21 -11 52 -39 68 -62 26 -37 30 -51 30 -110
0 -77 -22 -120 -83 -162 -67 -46 -181 -37 -246 20 -50 44 -71 140 -47 213 35
105 173 155 278 101z m606 16 c43 -12 102 -59 121 -98 65 -130 -28 -281 -173
-281 -61 0 -97 13 -135 48 -65 61 -83 157 -43 232 26 50 56 75 113 95 48 17
68 18 117 4z"/>
</g>
</svg>
